<svg width="47" height="46" viewBox="0 0 47 46" fill="none" xmlns="http://www.w3.org/2000/svg">
<path d="M46.9453 22.9996C46.9453 28.1184 45.2732 32.8466 42.4453 36.6678C41.0835 38.508 39.4536 40.1378 37.6134 41.4996C33.7922 44.3275 29.0641 45.9996 23.9453 45.9996C11.2428 45.9996 0.945312 35.7022 0.945312 22.9996C0.945312 10.2971 11.2428 -0.000366211 23.9453 -0.000366211C36.6479 -0.000366211 46.9453 10.2971 46.9453 22.9996Z" fill="#1EABE8"/>
<path d="M44.9453 41.4996C42.5453 40.2996 42.2786 37.7784 42.4453 36.6678C41.0835 38.508 39.4536 40.1378 37.6134 41.4996C41.748 44.2996 44.2241 42.6663 44.9453 41.4996Z" fill="#1EABE8"/>
<path d="M5.10731 30.9996V21.1996H9.34931C10.2266 21.1996 10.9826 21.3443 11.6173 21.6336C12.252 21.9136 12.742 22.3196 13.0873 22.8516C13.4326 23.3836 13.6053 24.0183 13.6053 24.7556C13.6053 25.4836 13.4326 26.1136 13.0873 26.6456C12.742 27.1776 12.252 27.5883 11.6173 27.8776C10.9826 28.1576 10.2266 28.2976 9.34931 28.2976H6.36731L7.37531 27.2756V30.9996H5.10731ZM7.37531 27.5276L6.36731 26.4496H9.22331C9.92331 26.4496 10.446 26.3003 10.7913 26.0016C11.1366 25.703 11.3093 25.2876 11.3093 24.7556C11.3093 24.2143 11.1366 23.7943 10.7913 23.4956C10.446 23.197 9.92331 23.0476 9.22331 23.0476H6.36731L7.37531 21.9696V27.5276ZM20.1212 31.1676C19.3466 31.1676 18.6279 31.0416 17.9652 30.7896C17.3119 30.5376 16.7426 30.183 16.2572 29.7256C15.7812 29.2683 15.4079 28.7316 15.1372 28.1156C14.8759 27.4996 14.7452 26.8276 14.7452 26.0996C14.7452 25.3716 14.8759 24.6996 15.1372 24.0836C15.4079 23.4676 15.7859 22.931 16.2712 22.4736C16.7566 22.0163 17.3259 21.6616 17.9792 21.4096C18.6326 21.1576 19.3419 21.0316 20.1072 21.0316C20.8819 21.0316 21.5912 21.1576 22.2352 21.4096C22.8886 21.6616 23.4532 22.0163 23.9292 22.4736C24.4146 22.931 24.7926 23.4676 25.0632 24.0836C25.3339 24.6903 25.4692 25.3623 25.4692 26.0996C25.4692 26.8276 25.3339 27.5043 25.0632 28.1296C24.7926 28.7456 24.4146 29.2823 23.9292 29.7396C23.4532 30.1876 22.8886 30.5376 22.2352 30.7896C21.5912 31.0416 20.8866 31.1676 20.1212 31.1676ZM20.1072 29.2356C20.5459 29.2356 20.9472 29.161 21.3112 29.0116C21.6846 28.8623 22.0112 28.6476 22.2912 28.3676C22.5712 28.0876 22.7859 27.7563 22.9352 27.3736C23.0939 26.991 23.1732 26.5663 23.1732 26.0996C23.1732 25.633 23.0939 25.2083 22.9352 24.8256C22.7859 24.443 22.5712 24.1116 22.2912 23.8316C22.0206 23.5516 21.6986 23.337 21.3252 23.1876C20.9519 23.0383 20.5459 22.9636 20.1072 22.9636C19.6686 22.9636 19.2626 23.0383 18.8892 23.1876C18.5252 23.337 18.2032 23.5516 17.9232 23.8316C17.6432 24.1116 17.4239 24.443 17.2652 24.8256C17.1159 25.2083 17.0412 25.633 17.0412 26.0996C17.0412 26.557 17.1159 26.9816 17.2652 27.3736C17.4239 27.7563 17.6386 28.0876 17.9092 28.3676C18.1892 28.6476 18.5159 28.8623 18.8892 29.0116C19.2626 29.161 19.6686 29.2356 20.1072 29.2356ZM30.3937 31.1676C29.6097 31.1676 28.8584 31.065 28.1397 30.8596C27.4211 30.645 26.8424 30.3696 26.4037 30.0336L27.1737 28.3256C27.5937 28.6243 28.0884 28.8716 28.6577 29.0676C29.2364 29.2543 29.8197 29.3476 30.4077 29.3476C30.8557 29.3476 31.2151 29.3056 31.4857 29.2216C31.7657 29.1283 31.9711 29.0023 32.1017 28.8436C32.2324 28.685 32.2977 28.503 32.2977 28.2976C32.2977 28.0363 32.1951 27.831 31.9897 27.6816C31.7844 27.523 31.5137 27.397 31.1777 27.3036C30.8417 27.201 30.4684 27.1076 30.0577 27.0236C29.6564 26.9303 29.2504 26.8183 28.8397 26.6876C28.4384 26.557 28.0697 26.389 27.7337 26.1836C27.3977 25.9783 27.1224 25.7076 26.9077 25.3716C26.7024 25.0356 26.5997 24.6063 26.5997 24.0836C26.5997 23.5236 26.7491 23.015 27.0477 22.5576C27.3557 22.091 27.8131 21.7223 28.4197 21.4516C29.0357 21.1716 29.8057 21.0316 30.7297 21.0316C31.3457 21.0316 31.9524 21.1063 32.5497 21.2556C33.1471 21.3956 33.6744 21.6103 34.1317 21.8996L33.4317 23.6216C32.9744 23.3603 32.5171 23.169 32.0597 23.0476C31.6024 22.917 31.1544 22.8516 30.7157 22.8516C30.2771 22.8516 29.9177 22.903 29.6377 23.0056C29.3577 23.1083 29.1571 23.2436 29.0357 23.4116C28.9144 23.5703 28.8537 23.757 28.8537 23.9716C28.8537 24.2236 28.9564 24.429 29.1617 24.5876C29.3671 24.737 29.6377 24.8583 29.9737 24.9516C30.3097 25.045 30.6784 25.1383 31.0797 25.2316C31.4904 25.325 31.8964 25.4323 32.2977 25.5536C32.7084 25.675 33.0817 25.8383 33.4177 26.0436C33.7537 26.249 34.0244 26.5196 34.2297 26.8556C34.4444 27.1916 34.5517 27.6163 34.5517 28.1296C34.5517 28.6803 34.3977 29.1843 34.0897 29.6416C33.7817 30.099 33.3197 30.4676 32.7037 30.7476C32.0971 31.0276 31.3271 31.1676 30.3937 31.1676ZM37.9947 30.9996V23.0476H34.8587V21.1996H43.3987V23.0476H40.2627V30.9996H37.9947Z" fill="white"/>
<path d="M5.44331 19.9996L5.44331 15.7996H6.24731L8.03531 18.7636H7.60931L9.36731 15.7996H10.1653L10.1773 19.9996H9.26531L9.25931 17.1976H9.42731L8.02331 19.5556H7.58531L6.15131 17.1976H6.35531L6.35531 19.9996H5.44331ZM10.8138 19.9996V15.7996L11.7858 15.7996V19.9996H10.8138ZM12.4225 19.9996V15.7996H13.2265L15.7045 18.8236H15.3145V15.7996H16.2745V19.9996H15.4765L12.9925 16.9756H13.3825L13.3825 19.9996H12.4225ZM18.9182 20.0716C18.5942 20.0716 18.2922 20.0196 18.0122 19.9156C17.7362 19.8076 17.4962 19.6556 17.2922 19.4596C17.0882 19.2636 16.9282 19.0336 16.8122 18.7696C16.7002 18.5056 16.6442 18.2156 16.6442 17.8996C16.6442 17.5836 16.7002 17.2936 16.8122 17.0296C16.9282 16.7656 17.0882 16.5356 17.2922 16.3396C17.5002 16.1436 17.7422 15.9936 18.0182 15.8896C18.2942 15.7816 18.5962 15.7276 18.9242 15.7276C19.2882 15.7276 19.6162 15.7916 19.9082 15.9196C20.2042 16.0436 20.4522 16.2276 20.6522 16.4716L20.0282 17.0476C19.8842 16.8836 19.7242 16.7616 19.5482 16.6816C19.3722 16.5976 19.1802 16.5556 18.9722 16.5556C18.7762 16.5556 18.5962 16.5876 18.4322 16.6516C18.2682 16.7156 18.1262 16.8076 18.0062 16.9276C17.8862 17.0476 17.7922 17.1896 17.7242 17.3536C17.6602 17.5176 17.6282 17.6996 17.6282 17.8996C17.6282 18.0996 17.6602 18.2816 17.7242 18.4456C17.7922 18.6096 17.8862 18.7516 18.0062 18.8716C18.1262 18.9916 18.2682 19.0836 18.4322 19.1476C18.5962 19.2116 18.7762 19.2436 18.9722 19.2436C19.1802 19.2436 19.3722 19.2036 19.5482 19.1236C19.7242 19.0396 19.8842 18.9136 20.0282 18.7456L20.6522 19.3216C20.4522 19.5656 20.2042 19.7516 19.9082 19.8796C19.6162 20.0076 19.2862 20.0716 18.9182 20.0716ZM23.8286 15.7996H24.8006V19.9996H23.8286V15.7996ZM21.9206 19.9996H20.9486V15.7996H21.9206V19.9996ZM23.9006 18.2776H21.8486V17.4556H23.9006V18.2776ZM27.4743 20.0716C27.1423 20.0716 26.8343 20.0176 26.5503 19.9096C26.2703 19.8016 26.0263 19.6496 25.8183 19.4536C25.6143 19.2576 25.4543 19.0276 25.3383 18.7636C25.2263 18.4996 25.1703 18.2116 25.1703 17.8996C25.1703 17.5876 25.2263 17.2996 25.3383 17.0356C25.4543 16.7716 25.6163 16.5416 25.8243 16.3456C26.0323 16.1496 26.2763 15.9976 26.5563 15.8896C26.8363 15.7816 27.1403 15.7276 27.4683 15.7276C27.8003 15.7276 28.1043 15.7816 28.3803 15.8896C28.6603 15.9976 28.9023 16.1496 29.1063 16.3456C29.3143 16.5416 29.4763 16.7716 29.5923 17.0356C29.7083 17.2956 29.7663 17.5836 29.7663 17.8996C29.7663 18.2116 29.7083 18.5016 29.5923 18.7696C29.4763 19.0336 29.3143 19.2636 29.1063 19.4596C28.9023 19.6516 28.6603 19.8016 28.3803 19.9096C28.1043 20.0176 27.8023 20.0716 27.4743 20.0716ZM27.4683 19.2436C27.6563 19.2436 27.8283 19.2116 27.9843 19.1476C28.1443 19.0836 28.2843 18.9916 28.4043 18.8716C28.5243 18.7516 28.6163 18.6096 28.6803 18.4456C28.7483 18.2816 28.7823 18.0996 28.7823 17.8996C28.7823 17.6996 28.7483 17.5176 28.6803 17.3536C28.6163 17.1896 28.5243 17.0476 28.4043 16.9276C28.2883 16.8076 28.1503 16.7156 27.9903 16.6516C27.8303 16.5876 27.6563 16.5556 27.4683 16.5556C27.2803 16.5556 27.1063 16.5876 26.9463 16.6516C26.7903 16.7156 26.6523 16.8076 26.5323 16.9276C26.4123 17.0476 26.3183 17.1896 26.2503 17.3536C26.1863 17.5176 26.1543 17.6996 26.1543 17.8996C26.1543 18.0956 26.1863 18.2776 26.2503 18.4456C26.3183 18.6096 26.4103 18.7516 26.5263 18.8716C26.6463 18.9916 26.7863 19.0836 26.9463 19.1476C27.1063 19.2116 27.2803 19.2436 27.4683 19.2436ZM30.1368 19.9996V15.7996H30.9408L33.4188 18.8236H33.0288V15.7996L33.9888 15.7996V19.9996H33.1908L30.7068 16.9756H31.0968V19.9996H30.1368ZM36.6625 20.0716C36.3305 20.0716 36.0225 20.0176 35.7385 19.9096C35.4585 19.8016 35.2145 19.6496 35.0065 19.4536C34.8025 19.2576 34.6425 19.0276 34.5265 18.7636C34.4145 18.4996 34.3585 18.2116 34.3585 17.8996C34.3585 17.5876 34.4145 17.2996 34.5265 17.0356C34.6425 16.7716 34.8045 16.5416 35.0125 16.3456C35.2205 16.1496 35.4645 15.9976 35.7445 15.8896C36.0245 15.7816 36.3285 15.7276 36.6565 15.7276C36.9885 15.7276 37.2925 15.7816 37.5685 15.8896C37.8485 15.9976 38.0905 16.1496 38.2945 16.3456C38.5025 16.5416 38.6645 16.7716 38.7805 17.0356C38.8965 17.2956 38.9545 17.5836 38.9545 17.8996C38.9545 18.2116 38.8965 18.5016 38.7805 18.7696C38.6645 19.0336 38.5025 19.2636 38.2945 19.4596C38.0905 19.6516 37.8485 19.8016 37.5685 19.9096C37.2925 20.0176 36.9905 20.0716 36.6625 20.0716ZM36.6565 19.2436C36.8445 19.2436 37.0165 19.2116 37.1725 19.1476C37.3325 19.0836 37.4725 18.9916 37.5925 18.8716C37.7125 18.7516 37.8045 18.6096 37.8685 18.4456C37.9365 18.2816 37.9705 18.0996 37.9705 17.8996C37.9705 17.6996 37.9365 17.5176 37.8685 17.3536C37.8045 17.1896 37.7125 17.0476 37.5925 16.9276C37.4765 16.8076 37.3385 16.7156 37.1785 16.6516C37.0185 16.5876 36.8445 16.5556 36.6565 16.5556C36.4685 16.5556 36.2945 16.5876 36.1345 16.6516C35.9785 16.7156 35.8405 16.8076 35.7205 16.9276C35.6005 17.0476 35.5065 17.1896 35.4385 17.3536C35.3745 17.5176 35.3425 17.6996 35.3425 17.8996C35.3425 18.0956 35.3745 18.2776 35.4385 18.4456C35.5065 18.6096 35.5985 18.7516 35.7145 18.8716C35.8345 18.9916 35.9745 19.0836 36.1345 19.1476C36.2945 19.2116 36.4685 19.2436 36.6565 19.2436ZM40.195 19.0396L40.141 17.9176L42.151 15.7996L43.231 15.7996L41.419 17.7496L40.879 18.3256L40.195 19.0396ZM39.325 19.9996V15.7996H40.291V19.9996H39.325ZM42.199 19.9996L40.705 18.1696L41.341 17.4796L43.333 19.9996H42.199Z" fill="white"/>
</svg>
