<svg width="24" height="24" viewBox="0 0 24 24" fill="none" xmlns="http://www.w3.org/2000/svg">
<g clip-path="url(#clip0_3391_3021)">
<path d="M17.6143 15.516C19.0668 13.5341 19.7173 11.0768 19.4358 8.63575C19.1543 6.19474 17.9615 3.95004 16.096 2.35072C14.2305 0.75141 11.83 -0.084566 9.3746 0.0100437C6.91923 0.104653 4.59012 1.12287 2.85325 2.86099C1.11637 4.59911 0.0998225 6.92894 0.0069698 9.38438C-0.0858829 11.8398 0.751811 14.2398 2.35246 16.1041C3.95311 17.9684 6.19866 19.1596 8.63988 19.4394C11.0811 19.7192 13.5379 19.0669 15.5188 17.613H15.5173C15.5623 17.673 15.6103 17.73 15.6643 17.7855L21.4393 23.5605C21.7206 23.842 22.1022 24.0002 22.5001 24.0003C22.898 24.0005 23.2796 23.8425 23.5611 23.5613C23.8426 23.28 24.0008 22.8985 24.0009 22.5006C24.001 22.1027 23.8431 21.721 23.5618 21.4395L17.7868 15.6645C17.7332 15.6102 17.6756 15.5616 17.6143 15.516ZM18.0013 9.75003C18.0013 10.8334 17.788 11.9062 17.3734 12.9072C16.9588 13.9081 16.3511 14.8176 15.585 15.5837C14.8189 16.3497 13.9094 16.9574 12.9085 17.372C11.9075 17.7866 10.8348 18 9.75135 18C8.66794 18 7.59514 17.7866 6.59421 17.372C5.59327 16.9574 4.6838 16.3497 3.91772 15.5837C3.15163 14.8176 2.54394 13.9081 2.12934 12.9072C1.71474 11.9062 1.50135 10.8334 1.50135 9.75003C1.50135 7.56199 2.37054 5.46357 3.91772 3.9164C5.46489 2.36922 7.56331 1.50003 9.75135 1.50003C11.9394 1.50003 14.0378 2.36922 15.585 3.9164C17.1322 5.46357 18.0013 7.56199 18.0013 9.75003Z" fill="#B1B1B1"/>
</g>
<defs>
<clipPath id="clip0_3391_3021">
<rect width="24" height="24" fill="white"/>
</clipPath>
</defs>
</svg>
